<mxfile host="app.diagrams.net" modified="2023-03-27T23:24:36.237Z" agent="5.0 (Windows NT 10.0; Win64; x64) AppleWebKit/537.36 (KHTML, like Gecko) Chrome/111.0.0.0 Safari/537.36" etag="MV8tsvGgWJQV4WiHyYv2" version="21.0.6" type="github">
  <diagram id="C5RBs43oDa-KdzZeNtuy" name="Page-1">
    <mxGraphModel dx="1434" dy="802" grid="1" gridSize="10" guides="1" tooltips="1" connect="1" arrows="1" fold="1" page="1" pageScale="1" pageWidth="1169" pageHeight="827" math="0" shadow="0">
      <root>
        <mxCell id="WIyWlLk6GJQsqaUBKTNV-0" />
        <mxCell id="WIyWlLk6GJQsqaUBKTNV-1" parent="WIyWlLk6GJQsqaUBKTNV-0" />
        <mxCell id="LgO84hRHbEmNy5Sro5nw-14" value="Marketing" style="rounded=1;whiteSpace=wrap;html=1;" vertex="1" parent="WIyWlLk6GJQsqaUBKTNV-1">
          <mxGeometry x="200" y="460" width="120" height="60" as="geometry" />
        </mxCell>
        <mxCell id="LgO84hRHbEmNy5Sro5nw-15" value="Tecnologia" style="rounded=1;whiteSpace=wrap;html=1;" vertex="1" parent="WIyWlLk6GJQsqaUBKTNV-1">
          <mxGeometry x="540" y="460" width="120" height="60" as="geometry" />
        </mxCell>
        <mxCell id="LgO84hRHbEmNy5Sro5nw-16" value="Negócios" style="rounded=1;whiteSpace=wrap;html=1;" vertex="1" parent="WIyWlLk6GJQsqaUBKTNV-1">
          <mxGeometry x="850" y="460" width="120" height="60" as="geometry" />
        </mxCell>
        <mxCell id="LgO84hRHbEmNy5Sro5nw-19" value="" style="rounded=1;whiteSpace=wrap;html=1;" vertex="1" parent="WIyWlLk6GJQsqaUBKTNV-1">
          <mxGeometry x="100" y="120" width="990" height="160" as="geometry" />
        </mxCell>
        <mxCell id="LgO84hRHbEmNy5Sro5nw-20" value="" style="group" vertex="1" connectable="0" parent="WIyWlLk6GJQsqaUBKTNV-1">
          <mxGeometry x="135" y="170" width="920" height="60" as="geometry" />
        </mxCell>
        <mxCell id="LgO84hRHbEmNy5Sro5nw-1" value="Automóveis" style="rounded=1;whiteSpace=wrap;html=1;" vertex="1" parent="LgO84hRHbEmNy5Sro5nw-20">
          <mxGeometry width="120" height="60" as="geometry" />
        </mxCell>
        <mxCell id="LgO84hRHbEmNy5Sro5nw-2" value="Ramos Elementares" style="rounded=1;whiteSpace=wrap;html=1;" vertex="1" parent="LgO84hRHbEmNy5Sro5nw-20">
          <mxGeometry x="160" width="120" height="60" as="geometry" />
        </mxCell>
        <mxCell id="LgO84hRHbEmNy5Sro5nw-3" value="Seguro Saúde" style="rounded=1;whiteSpace=wrap;html=1;" vertex="1" parent="LgO84hRHbEmNy5Sro5nw-20">
          <mxGeometry x="320" width="120" height="60" as="geometry" />
        </mxCell>
        <mxCell id="LgO84hRHbEmNy5Sro5nw-4" value="Capitalização" style="rounded=1;whiteSpace=wrap;html=1;" vertex="1" parent="LgO84hRHbEmNy5Sro5nw-20">
          <mxGeometry x="480" width="120" height="60" as="geometry" />
        </mxCell>
        <mxCell id="LgO84hRHbEmNy5Sro5nw-5" value="Seguro de vida" style="rounded=1;whiteSpace=wrap;html=1;" vertex="1" parent="LgO84hRHbEmNy5Sro5nw-20">
          <mxGeometry x="640" width="120" height="60" as="geometry" />
        </mxCell>
        <mxCell id="LgO84hRHbEmNy5Sro5nw-6" value="Previdência Complementar" style="rounded=1;whiteSpace=wrap;html=1;" vertex="1" parent="LgO84hRHbEmNy5Sro5nw-20">
          <mxGeometry x="800" width="120" height="60" as="geometry" />
        </mxCell>
        <mxCell id="LgO84hRHbEmNy5Sro5nw-21" value="" style="endArrow=classic;html=1;rounded=0;exitX=0.5;exitY=1;exitDx=0;exitDy=0;entryX=0.5;entryY=0;entryDx=0;entryDy=0;" edge="1" parent="WIyWlLk6GJQsqaUBKTNV-1" source="LgO84hRHbEmNy5Sro5nw-19" target="LgO84hRHbEmNy5Sro5nw-15">
          <mxGeometry width="50" height="50" relative="1" as="geometry">
            <mxPoint x="690" y="430" as="sourcePoint" />
            <mxPoint x="740" y="380" as="targetPoint" />
          </mxGeometry>
        </mxCell>
        <mxCell id="LgO84hRHbEmNy5Sro5nw-22" value="" style="endArrow=classic;html=1;rounded=0;exitX=0.5;exitY=1;exitDx=0;exitDy=0;entryX=0.5;entryY=0;entryDx=0;entryDy=0;" edge="1" parent="WIyWlLk6GJQsqaUBKTNV-1" source="LgO84hRHbEmNy5Sro5nw-19" target="LgO84hRHbEmNy5Sro5nw-14">
          <mxGeometry width="50" height="50" relative="1" as="geometry">
            <mxPoint x="690" y="430" as="sourcePoint" />
            <mxPoint x="740" y="380" as="targetPoint" />
          </mxGeometry>
        </mxCell>
        <mxCell id="LgO84hRHbEmNy5Sro5nw-23" value="" style="endArrow=classic;html=1;rounded=0;entryX=0.5;entryY=0;entryDx=0;entryDy=0;" edge="1" parent="WIyWlLk6GJQsqaUBKTNV-1" target="LgO84hRHbEmNy5Sro5nw-16">
          <mxGeometry width="50" height="50" relative="1" as="geometry">
            <mxPoint x="590" y="280" as="sourcePoint" />
            <mxPoint x="740" y="380" as="targetPoint" />
          </mxGeometry>
        </mxCell>
        <mxCell id="LgO84hRHbEmNy5Sro5nw-24" value="Marketing" style="rounded=1;whiteSpace=wrap;html=1;" vertex="1" parent="WIyWlLk6GJQsqaUBKTNV-1">
          <mxGeometry x="200" y="560" width="120" height="60" as="geometry" />
        </mxCell>
      </root>
    </mxGraphModel>
  </diagram>
</mxfile>
